HIERARCHY
ROOT root
{
	OFFSET	0	13.1	24.9
	CHANNELS 6  Xposition Yposition Zposition Xrotation Yrotation Zrotation
	JOINT spine_1
	{
		OFFSET	0	9.99999	0
		CHANNELS 3  Xrotation Yrotation Zrotation
		JOINT spine_2
		{
			OFFSET	0	112	-10
			CHANNELS 3  Xrotation Yrotation Zrotation
			JOINT spine_3
			{
				OFFSET	0	206.5	19.3
				CHANNELS 3  Xrotation Yrotation Zrotation
				JOINT spine_4
				{
					OFFSET	0	110.4	14.6
					CHANNELS 3  Xrotation Yrotation Zrotation
					JOINT neck_1
					{
						OFFSET	0	71.8	-50.3
						CHANNELS 3  Xrotation Yrotation Zrotation
						JOINT neck_2
						{
							OFFSET	0	86.2	-25.8
							CHANNELS 3  Xrotation Yrotation Zrotation
							JOINT head_ee
							{
								OFFSET	0	179.8	-8.7
								CHANNELS 3  Xrotation Yrotation Zrotation
								End Site
								{
									OFFSET	1	0	0
								}
							}
						}
					}
					JOINT left_clavicle
					{
						OFFSET	-43.2	22.4	-70.8
						CHANNELS 3  Xrotation Yrotation Zrotation
						JOINT left_shoulder
						{
							OFFSET	-93.9	-5.79999	48.7
							CHANNELS 3  Xrotation Yrotation Zrotation
							JOINT left_elbow
							{
								OFFSET	-291.4	-30.8	15.2
								CHANNELS 3  Xrotation Yrotation Zrotation
								JOINT left_lowarm_twist
								{
									OFFSET	-110.7	-3.89999	13.6
									CHANNELS 3  Xrotation Yrotation Zrotation
									JOINT left_hand
									{
										OFFSET	-110.7	-3.89999	13.6
										CHANNELS 3  Xrotation Yrotation Zrotation
										JOINT left_ee
										{
											OFFSET	-80.8	-5.10001	12.1
											CHANNELS 3  Xrotation Yrotation Zrotation
											End Site
											{
												OFFSET	1	0	0
											}
										}
									}
								}
							}
						}
					}
					JOINT right_clavicle
					{
						OFFSET	43.2	22.4	-70.8
						CHANNELS 3  Xrotation Yrotation Zrotation
						JOINT right_shoulder
						{
							OFFSET	93.9	-5.79999	48.7
							CHANNELS 3  Xrotation Yrotation Zrotation
							JOINT right_elbow
							{
								OFFSET	291.4	-30.8	15.2
								CHANNELS 3  Xrotation Yrotation Zrotation
								JOINT right_lowarm_twist
								{
									OFFSET	110.7	-3.89999	13.6
									CHANNELS 3  Xrotation Yrotation Zrotation
									JOINT right_hand
									{
										OFFSET	110.7	-3.89999	13.6
										CHANNELS 3  Xrotation Yrotation Zrotation
										JOINT right_ee
										{
											OFFSET	80.8	-5.10001	12.1
											CHANNELS 3  Xrotation Yrotation Zrotation
											End Site
											{
												OFFSET	1	0	0
											}
										}
									}
								}
							}
						}
					}
				}
			}
		}
	}
	JOINT left_hip
	{
		OFFSET	-82.8	-127.5	0.300001
		CHANNELS 3  Xrotation Yrotation Zrotation
		JOINT left_knee
		{
			OFFSET	-28.2	-396.7	2.2
			CHANNELS 3  Xrotation Yrotation Zrotation
			JOINT left_ankle
			{
				OFFSET	-11.7	-411.3	35.4
				CHANNELS 3  Xrotation Yrotation Zrotation
				JOINT left_toes
				{
					OFFSET	0	-60	-88.6
					CHANNELS 3  Xrotation Yrotation Zrotation
					JOINT left_foot_ee
					{
						OFFSET	-22.5	-16.5	-42.2
						CHANNELS 3  Xrotation Yrotation Zrotation
						End Site
						{
							OFFSET	1	0	0
						}
					}
				}
			}
		}
	}
	JOINT right_hip
	{
		OFFSET	82.8	-127.5	0.300001
		CHANNELS 3  Xrotation Yrotation Zrotation
		JOINT right_knee
		{
			OFFSET	28.2	-396.7	2.2
			CHANNELS 3  Xrotation Yrotation Zrotation
			JOINT right_ankle
			{
				OFFSET	11.7	-411.3	35.4
				CHANNELS 3  Xrotation Yrotation Zrotation
				JOINT right_toes
				{
					OFFSET	0	-60	-88.6
					CHANNELS 3  Xrotation Yrotation Zrotation
					JOINT right_foot_ee
					{
						OFFSET	22.5	-16.5	-42.2
						CHANNELS 3  Xrotation Yrotation Zrotation
						End Site
						{
							OFFSET	1	0	0
						}
					}
				}
			}
		}
	}
}
MOTION
Frames: 13
Frame Time: 0.02
1175.77703948 734.659 -1823.42927266 9.4837079938 17.6077653446 -6.18088181255 -3.26753 0.380297 0.907246 -3.26713 0.321799 0.929605 -3.2611 0.0635113 0.98167 -3.26238 0.217744 0.959324 1.12147 11.2936 -0.777923 1.50079 20.6331 0.134545 -0.0 0.0 -0.0 10.5461 12.2374 19.5934 -21.8459 -11.2101 56.1532 0.367585 -10.3202 0.0331948 -13.2078 -0.647875 1.5558 0.666453 -0.945928 4.06529 -0.0 0.0 -0.0 12.5524 23.3532 -24.9261 -21.8231 30.8205 -41.6561 1.29808 32.7407 -0.38133 -43.0683 3.28323 -4.27222 1.18086 -14.0259 -13.2472 0.0 0.0 0.0 22.1574 -8.38916 -0.873396 -69.1405 -3.26349 9.45044 6.96795 28.7579 -1.06922 -38.9941 0.0 0.0 -0.0 0.0 -0.0 8.94365 5.08141 2.8052 -29.2228 -0.0730479 -4.43569 4.91078 19.0528 0.797824 22.0644 -0.0 -0.0 0.0 0.0 0.0 
1127.80021597 740.924 -1841.26734246 10.4187048811 26.7751272935 -7.52715710381 -3.65626 0.158761 1.20764 -3.65545 0.0815998 1.21529 -3.65253 -0.252107 1.19166 -3.65451 -0.0607572 1.21651 0.166714 10.7034 -0.5428 0.463513 19.5146 0.484795 -0.0 0.0 -0.0 10.1226 13.6785 18.6302 -23.8251 -11.1789 55.3345 0.383287 -10.7509 0.0360658 -12.2451 -0.588661 1.44777 1.09736 -1.41269 6.77289 -0.0 0.0 -0.0 12.7571 24.8097 -25.2501 -18.9055 30.0634 -41.5803 1.40321 34.8015 -0.439778 -42.8712 3.26156 -4.25916 0.875124 -13.9897 -11.2748 0.0 0.0 0.0 22.0747 -6.9278 -4.70877 -69.6205 -3.3233 9.49425 3.31293 23.0554 -0.497199 -39.4362 0.0 0.0 -0.0 0.0 -0.0 6.10173 0.500699 3.70612 -29.8993 -0.0479105 -4.53647 6.6202 16.9161 1.0498 24.3006 -0.0 -0.0 0.0 0.0 0.0 
1108.16612517 738.036 -1848.14821161 10.9659107913 28.9877665996 -7.50503637703 -3.64773 0.191815 1.244 -3.64688 0.112274 1.25368 -3.64313 -0.232825 1.23698 -3.64526 -0.0345615 1.25822 0.541419 10.6704 -0.234453 0.836114 19.1554 0.763955 -0.0 0.0 -0.0 9.78344 13.9112 17.997 -23.8924 -11.5839 55.2124 0.351091 -9.86639 0.0303041 -11.7901 -0.561311 1.39638 1.38066 -0.0622087 9.23754 -0.0 0.0 -0.0 12.9733 25.2038 -25.7066 -17.2938 29.1856 -40.608 1.44239 35.5444 -0.462351 -43.0614 3.28247 -4.27176 0.857678 -13.0464 -10.8188 0.0 0.0 0.0 21.8741 -4.60048 -6.59461 -70.4464 -3.42706 9.56845 1.21292 24.7921 -0.184508 -39.3742 0.0 0.0 -0.0 0.0 -0.0 4.9833 -2.86549 4.30404 -29.9678 -0.0452972 -4.54666 8.3574 17.8824 1.32741 24.8621 -0.0 -0.0 0.0 0.0 0.0 
1065.28620068 734.536 -1856.16564293 14.7455791599 34.6018739801 -10.0953333521 -4.15414 0.0162949 0.823262 -4.15377 -0.0361227 0.822631 -4.15378 -0.265389 0.779486 -4.1546 -0.138957 0.811615 -2.04233 10.3155 -1.94181 -1.79265 20.1792 -0.710164 -0.0 0.0 -0.0 9.39203 13.8697 17.3124 -25.2526 -10.5159 56.5324 0.439756 -12.2896 0.0473446 -11.5017 -0.544191 1.3637 2.04817 -0.12232 13.7697 -0.0 0.0 -0.0 12.4358 22.9047 -24.6995 -14.6955 28.9636 -39.8594 1.5281 37.1222 -0.513134 -44.775 3.4727 -4.38213 0.338579 -15.928 -8.60751 0.0 0.0 0.0 22.2395 -5.80478 -4.08565 -60.2618 -2.22832 8.55423 -8.27748 22.4396 1.2675 -40.1924 0.0 0.0 -0.0 0.0 -0.0 0.640462 -1.45449 4.77348 -33.0172 0.0832771 -4.99688 9.42094 18.2713 1.49511 27.8959 -0.0 -0.0 0.0 0.0 0.0 
1051.0758397 743.803 -1867.13452562 15.3210438601 35.8643816496 -9.35998902997 -4.04179 0.112841 0.721005 -4.04151 0.0667342 0.726724 -4.04019 -0.138331 0.716552 -4.04091 -0.0234324 0.729405 -3.02168 10.3397 -0.981133 -2.84489 19.5683 0.464296 -0.0 0.0 -0.0 8.75229 13.7804 16.2036 -26.2235 -11.3673 57.1526 0.432216 -12.0852 0.0457528 -10.1882 -0.4683 1.21376 2.76119 0.232803 18.8841 -0.0 0.0 -0.0 12.4074 19.6306 -24.8973 -12.61 28.789 -41.3648 1.53166 37.1865 -0.515286 -47.4322 3.77395 -4.54191 -0.574824 -15.1798 -2.64407 0.0 0.0 0.0 17.8022 -3.17376 -6.27722 -34.7885 -0.168924 5.25512 -23.5877 20.7262 3.62833 -40.109 0.0 0.0 -0.0 0.0 -0.0 -1.75169 -3.09787 2.68773 -30.0337 -0.0427744 -4.55645 6.85811 14.7695 1.06871 25.5145 -0.0 -0.0 0.0 0.0 0.0 
1039.37901375 740.507 -1869.45211843 14.7620068452 35.5224061158 -8.762415751 -4.11717 -0.109565 0.707865 -4.11691 -0.154385 0.699459 -4.11854 -0.343977 0.6283 -4.11901 -0.240434 0.674737 -2.2269 9.55565 -2.50665 -1.99275 19.2623 -1.37291 -0.0 0.0 -0.0 8.74092 14.7212 16.0865 -26.5627 -11.9252 58.1781 0.427224 -11.9496 0.0447136 -10.6124 -0.492432 1.26237 2.47967 0.140726 16.8681 -0.0 0.0 -0.0 11.9567 18.6984 -23.921 -10.029 28.5771 -41.4698 1.72611 40.529 -0.637332 -47.5351 3.78577 -4.54782 0.154664 -16.9514 -7.85538 0.0 0.0 0.0 19.5088 -7.86592 -4.36555 -32.0593 -0.0403051 4.85619 -23.569 25.916 3.71253 -40.1191 0.0 0.0 -0.0 0.0 -0.0 -1.9302 3.21335 2.41932 -30.2374 -0.0349015 -4.58672 8.9094 15.5773 1.38625 25.4212 -0.0 -0.0 0.0 0.0 0.0 
1020.14302803 736.718 -1875.33674619 13.8035014728 35.7780043185 -7.59574772172 -4.14149 0.0869405 0.810006 -4.14112 0.0352232 0.813896 -4.14006 -0.194261 0.791159 -4.14093 -0.0668785 0.811908 -3.73577 10.3062 -0.551812 -3.59877 19.2492 1.01898 -0.0 0.0 -0.0 8.77133 14.4889 16.1633 -27.2676 -10.8963 57.7987 0.423162 -11.8393 0.0438763 -10.7037 -0.497673 1.27281 2.833 0.279411 19.4114 -0.0 0.0 -0.0 12.157 19.1625 -24.3515 -9.30975 29.7859 -41.0381 1.75414 40.9853 -0.655634 -47.5745 3.79029 -4.55007 -0.691894 -15.3577 -1.99491 0.0 0.0 0.0 19.7416 -7.27642 -6.36996 -28.4127 0.101583 4.31464 -22.5646 20.1992 3.46395 -40.1168 0.0 0.0 -0.0 0.0 -0.0 -1.09894 -2.27653 2.93491 -31.0802 -0.00118056 -4.71166 7.33436 16.2444 1.15384 25.861 -0.0 -0.0 0.0 0.0 0.0 
1008.2904134 736.718 -1864.59243182 14.111821718 37.4474621811 -8.11265665011 -4.14149 0.0869405 0.810006 -4.14112 0.0352232 0.813896 -4.14006 -0.194261 0.791159 -4.14093 -0.0668785 0.811908 -3.73577 10.3062 -0.551812 -3.59877 19.2492 1.01898 -0.0 0.0 -0.0 8.77133 14.4889 16.1633 -27.2676 -10.8963 57.7987 0.423162 -11.8393 0.0438763 -10.7037 -0.497673 1.27281 2.833 0.279411 19.4114 -0.0 0.0 -0.0 12.157 19.1625 -24.3515 -9.30975 29.7859 -41.0381 1.75414 40.9853 -0.655634 -47.5745 3.79029 -4.55007 -0.691894 -15.3577 -1.99491 0.0 0.0 0.0 19.7416 -7.27642 -6.36996 -28.4127 0.101583 4.31464 -22.5646 20.1992 3.46395 -40.1168 0.0 0.0 -0.0 0.0 -0.0 -1.09894 -2.27653 2.93491 -31.0802 -0.00118056 -4.71166 7.33436 16.2444 1.15384 25.861 -0.0 -0.0 0.0 0.0 0.0 
1002.87367491 736.718 -1859.46050866 14.2645697626 38.2253311551 -8.36166572539 -4.14149 0.0869405 0.810006 -4.14112 0.0352232 0.813896 -4.14006 -0.194261 0.791159 -4.14093 -0.0668785 0.811908 -3.73577 10.3062 -0.551812 -3.59877 19.2492 1.01898 -0.0 0.0 -0.0 8.77133 14.4889 16.1633 -27.2676 -10.8963 57.7987 0.423162 -11.8393 0.0438763 -10.7037 -0.497673 1.27281 2.833 0.279411 19.4114 -0.0 0.0 -0.0 12.157 19.1625 -24.3515 -9.30975 29.7859 -41.0381 1.75414 40.9853 -0.655634 -47.5745 3.79029 -4.55007 -0.691894 -15.3577 -1.99491 0.0 0.0 0.0 19.7416 -7.27642 -6.36996 -28.4127 0.101583 4.31464 -22.5646 20.1992 3.46395 -40.1168 0.0 0.0 -0.0 0.0 -0.0 -1.09894 -2.27653 2.93491 -31.0802 -0.00118056 -4.71166 7.33436 16.2444 1.15384 25.861 -0.0 -0.0 0.0 0.0 0.0 
996.150514346 736.718 -1852.88586315 14.4656644897 39.2048647003 -8.68317441596 -4.14149 0.0869405 0.810006 -4.14112 0.0352232 0.813896 -4.14006 -0.194261 0.791159 -4.14093 -0.0668785 0.811908 -3.73577 10.3062 -0.551812 -3.59877 19.2492 1.01898 -0.0 0.0 -0.0 8.77133 14.4889 16.1633 -27.2676 -10.8963 57.7987 0.423162 -11.8393 0.0438763 -10.7037 -0.497673 1.27281 2.833 0.279411 19.4114 -0.0 0.0 -0.0 12.157 19.1625 -24.3515 -9.30975 29.7859 -41.0381 1.75414 40.9853 -0.655634 -47.5745 3.79029 -4.55007 -0.691894 -15.3577 -1.99491 0.0 0.0 0.0 19.7416 -7.27642 -6.36996 -28.4127 0.101583 4.31464 -22.5646 20.1992 3.46395 -40.1168 0.0 0.0 -0.0 0.0 -0.0 -1.09894 -2.27653 2.93491 -31.0802 -0.00118056 -4.71166 7.33436 16.2444 1.15384 25.861 -0.0 -0.0 0.0 0.0 0.0 
979.921122815 733.229 -1857.87251032 13.1352296667 39.4363813709 -7.61124528004 -3.86907 -0.0849396 0.771859 -3.86875 -0.133881 0.76489 -3.87021 -0.339583 0.698333 -3.87082 -0.225036 0.743197 -2.93216 9.78657 -2.94115 -2.70066 20.0704 -1.68113 -0.0 0.0 -0.0 8.55572 14.807 15.7604 -27.4156 -11.9158 58.8953 0.407373 -11.4093 0.0406948 -11.256 -0.529729 1.33577 2.70516 1.56349 19.0118 -0.0 0.0 -0.0 12.2128 18.3711 -24.5288 -7.61436 28.5795 -40.4993 1.92467 43.6296 -0.770452 -48.2016 3.86253 -4.58555 -0.833687 -16.5637 -1.63611 0.0 0.0 0.0 17.9765 -12.7254 -5.38889 -19.1776 0.304517 2.91349 -18.6368 27.3981 2.95601 -38.4787 0.0 0.0 -0.0 0.0 -0.0 -0.695828 6.56782 1.26387 -32.3521 0.0531878 -4.89926 8.58955 14.3813 1.32634 24.7707 -0.0 -0.0 0.0 0.0 0.0 
972.362302821 726.144 -1864.69251801 12.6759929853 39.7002226209 -6.90228259905 -3.86368 0.080988 0.6913 -3.86341 0.0368358 0.695052 -3.86257 -0.156124 0.678292 -3.86321 -0.0470434 0.694435 -2.3933 9.08054 -4.69369 -2.07795 20.1222 -3.72242 -0.0 0.0 -0.0 8.84313 13.8994 16.3495 -27.582 -12.8565 58.4487 0.369901 -10.3838 0.0336111 -12.4604 -0.601743 1.47201 2.59752 4.91725 19.5279 -0.0 0.0 -0.0 12.64 18.3369 -25.5171 -3.565 23.6461 -41.884 2.16421 46.9864 -0.94081 -48.8783 3.94092 -4.62296 -1.27007 -17.0467 0.815381 0.0 0.0 0.0 16.3545 -13.3588 -7.33478 -11.2964 0.297823 1.70524 -11.8032 28.3852 1.87304 -40.1612 0.0 0.0 -0.0 0.0 -0.0 -0.253725 6.84456 0.944623 -33.0472 0.084659 -5.00127 9.45415 14.0768 1.45191 25.1988 -0.0 -0.0 0.0 0.0 0.0 
967.192556989 726.144 -1859.31575421 12.8181505753 40.4471518332 -7.12309743128 -3.86368 0.080988 0.6913 -3.86341 0.0368358 0.695052 -3.86257 -0.156124 0.678292 -3.86321 -0.0470434 0.694435 -2.3933 9.08054 -4.69369 -2.07795 20.1222 -3.72242 -0.0 0.0 -0.0 8.84313 13.8994 16.3495 -27.582 -12.8565 58.4487 0.369901 -10.3838 0.0336111 -12.4604 -0.601743 1.47201 2.59752 4.91725 19.5279 -0.0 0.0 -0.0 12.64 18.3369 -25.5171 -3.565 23.6461 -41.884 2.16421 46.9864 -0.94081 -48.8783 3.94092 -4.62296 -1.27007 -17.0467 0.815381 0.0 0.0 0.0 16.3545 -13.3588 -7.33478 -11.2964 0.297823 1.70524 -11.8032 28.3852 1.87304 -40.1612 0.0 0.0 -0.0 0.0 -0.0 -0.253725 6.84456 0.944623 -33.0472 0.084659 -5.00127 9.45415 14.0768 1.45191 25.1988 -0.0 -0.0 0.0 0.0 0.0 
